<?xml version="1.0" encoding="UTF-8" standalone="no"?>
<!-- Created with Inkscape (http://www.inkscape.org/) -->

<svg
   xmlns:dc="http://purl.org/dc/elements/1.1/"
   xmlns:cc="http://creativecommons.org/ns#"
   xmlns:rdf="http://www.w3.org/1999/02/22-rdf-syntax-ns#"
   xmlns:svg="http://www.w3.org/2000/svg"
   xmlns="http://www.w3.org/2000/svg"
   xmlns:sodipodi="http://sodipodi.sourceforge.net/DTD/sodipodi-0.dtd"
   xmlns:inkscape="http://www.inkscape.org/namespaces/inkscape"
   width="2048px"
   height="2048px"
   viewBox="0 0 2048 2048"
   version="1.1"
   id="SVGRoot"
   inkscape:version="0.92.3 (2405546, 2018-03-11)"
   sodipodi:docname="Ammo-spritesheet.svg"
   inkscape:export-filename="C:\Users\Michael\Documents\Unity\Nebulex\Assets\Textures\UI\Ammo-spritesheet.png"
   inkscape:export-xdpi="93.75"
   inkscape:export-ydpi="93.75">
  <sodipodi:namedview
     id="base"
     pagecolor="#ffffff"
     bordercolor="#666666"
     borderopacity="1.0"
     inkscape:pageopacity="0.0"
     inkscape:pageshadow="2"
     inkscape:zoom="0.32"
     inkscape:cx="762.13498"
     inkscape:cy="1176.07"
     inkscape:document-units="px"
     inkscape:current-layer="layer1"
     showgrid="true"
     inkscape:window-width="1920"
     inkscape:window-height="986"
     inkscape:window-x="-11"
     inkscape:window-y="-11"
     inkscape:window-maximized="1"
     inkscape:pagecheckerboard="true">
    <inkscape:grid
       type="xygrid"
       id="grid812"
       spacingx="102.4"
       spacingy="102.4"
       empspacing="2" />
  </sodipodi:namedview>
  <defs
     id="defs815" />
  <metadata
     id="metadata818">
    <rdf:RDF>
      <cc:Work
         rdf:about="">
        <dc:format>image/svg+xml</dc:format>
        <dc:type
           rdf:resource="http://purl.org/dc/dcmitype/StillImage" />
        <dc:title></dc:title>
      </cc:Work>
    </rdf:RDF>
  </metadata>
  <g
     id="layer1"
     inkscape:groupmode="layer"
     inkscape:label="Layer 1">
    <path
       style="fill:none;fill-opacity:1;stroke:#ffffff;stroke-width:10;stroke-miterlimit:4;stroke-dasharray:none"
       id="path814"
       sodipodi:type="arc"
       sodipodi:cx="-102.4"
       sodipodi:cy="102.4"
       sodipodi:rx="90"
       sodipodi:ry="90"
       sodipodi:start="0"
       sodipodi:end="1.7453293e-005"
       d="m -12.400002,102.4 a 90,90 0 0 1 0,0.002"
       sodipodi:open="true"
       transform="rotate(-90)" />
    <circle
       style="fill:none;fill-opacity:1;stroke:#ffffff;stroke-width:10;stroke-miterlimit:4;stroke-dasharray:none"
       id="path824"
       cx="1945.6"
       cy="1945.6"
       r="90" />
    <path
       style="fill:none;fill-opacity:1;stroke:#ffffff;stroke-width:10;stroke-miterlimit:4;stroke-dasharray:none"
       id="path828"
       sodipodi:type="arc"
       sodipodi:cx="307.20001"
       sodipodi:cy="102.4"
       sodipodi:rx="90"
       sodipodi:ry="90"
       sodipodi:start="4.712389"
       sodipodi:end="4.7752208"
       d="m 307.20001,12.400002 a 90,90 0 0 1 5.65115,0.177594"
       sodipodi:open="true" />
    <path
       style="fill:none;fill-opacity:1;stroke:#ffffff;stroke-width:10;stroke-miterlimit:4;stroke-dasharray:none"
       id="path830"
       sodipodi:type="arc"
       sodipodi:cx="512"
       sodipodi:cy="102.4"
       sodipodi:rx="90"
       sodipodi:ry="90"
       sodipodi:start="4.712389"
       sodipodi:end="4.9009317"
       sodipodi:open="true"
       d="m 512,12.400002 a 90,90 0 0 1 16.86849,1.594942" />
    <path
       style="fill:none;fill-opacity:1;stroke:#ffffff;stroke-width:10;stroke-miterlimit:4;stroke-dasharray:none"
       id="path832"
       sodipodi:type="arc"
       sodipodi:cx="716.79999"
       sodipodi:cy="102.4"
       sodipodi:rx="90"
       sodipodi:ry="90"
       sodipodi:start="4.712389"
       sodipodi:end="4.9637688"
       sodipodi:open="true"
       d="m 716.79999,12.400002 a 90,90 0 0 1 22.38666,2.828688" />
    <path
       style="fill:none;fill-opacity:1;stroke:#ffffff;stroke-width:10;stroke-miterlimit:4;stroke-dasharray:none"
       id="path834"
       sodipodi:type="arc"
       sodipodi:cx="921.59998"
       sodipodi:cy="102.4"
       sodipodi:rx="90"
       sodipodi:ry="90"
       sodipodi:start="4.712389"
       sodipodi:end="5.0266006"
       sodipodi:open="true"
       d="m 921.59998,12.400002 a 90,90 0 0 1 27.81601,4.406369" />
    <path
       style="fill:none;fill-opacity:1;stroke:#ffffff;stroke-width:10;stroke-miterlimit:4;stroke-dasharray:none"
       id="path836"
       sodipodi:type="arc"
       sodipodi:cx="1126.4"
       sodipodi:cy="102.4"
       sodipodi:rx="90"
       sodipodi:ry="90"
       sodipodi:start="4.712389"
       sodipodi:end="5.0265482"
       sodipodi:open="true"
       d="m 1126.4,12.400002 a 90,90 0 0 1 27.8115,4.404912" />
    <path
       style="fill:none;fill-opacity:1;stroke:#ffffff;stroke-width:10;stroke-miterlimit:4;stroke-dasharray:none"
       id="path838"
       sodipodi:type="arc"
       sodipodi:cx="1331.2"
       sodipodi:cy="102.4"
       sodipodi:rx="90"
       sodipodi:ry="90"
       sodipodi:start="4.712389"
       sodipodi:end="5.0893801"
       sodipodi:open="true"
       d="m 1331.2,12.400002 a 90,90 0 0 1 33.1312,6.320116" />
    <path
       style="fill:none;fill-opacity:1;stroke:#ffffff;stroke-width:10;stroke-miterlimit:4;stroke-dasharray:none"
       id="path840"
       sodipodi:type="arc"
       sodipodi:cx="1536"
       sodipodi:cy="102.4"
       sodipodi:rx="90"
       sodipodi:ry="90"
       sodipodi:start="4.712389"
       sodipodi:end="5.152212"
       sodipodi:open="true"
       d="m 1536,12.400002 a 90,90 0 0 1 38.3201,8.565567" />
    <path
       style="fill:none;fill-opacity:1;stroke:#ffffff;stroke-width:10;stroke-miterlimit:4;stroke-dasharray:none"
       id="path842"
       sodipodi:type="arc"
       sodipodi:cx="1740.8"
       sodipodi:cy="102.4"
       sodipodi:rx="90"
       sodipodi:ry="90"
       sodipodi:start="4.712389"
       sodipodi:end="5.2150438"
       sodipodi:open="true"
       d="M 1740.8,12.400002 A 90,90 0 0 1 1784.1579,23.5324" />
    <path
       style="fill:none;fill-opacity:1;stroke:#ffffff;stroke-width:10;stroke-miterlimit:4;stroke-dasharray:none"
       id="path844"
       sodipodi:type="arc"
       sodipodi:cx="1945.6"
       sodipodi:cy="102.4"
       sodipodi:rx="90"
       sodipodi:ry="90"
       sodipodi:start="4.712389"
       sodipodi:end="5.2778757"
       sodipodi:open="true"
       d="m 1945.6,12.400002 a 90,90 0 0 1 48.2244,14.010488" />
    <path
       style="fill:none;fill-opacity:1;stroke:#ffffff;stroke-width:10;stroke-miterlimit:4;stroke-dasharray:none"
       id="path846"
       sodipodi:type="arc"
       sodipodi:cx="102.4"
       sodipodi:cy="307.20001"
       sodipodi:rx="90"
       sodipodi:ry="90"
       sodipodi:start="4.712389"
       sodipodi:end="5.3407075"
       sodipodi:open="true"
       d="m 102.4,217.20001 a 90,90 0 0 1 52.90067,17.18847" />
    <path
       style="fill:none;fill-opacity:1;stroke:#ffffff;stroke-width:10;stroke-miterlimit:4;stroke-dasharray:none"
       id="path851"
       sodipodi:type="arc"
       sodipodi:cx="307.20001"
       sodipodi:cy="307.20001"
       sodipodi:rx="90"
       sodipodi:ry="90"
       sodipodi:start="4.712389"
       sodipodi:end="5.4035394"
       sodipodi:open="true"
       d="m 307.20001,217.20001 a 90,90 0 0 1 57.36816,20.65381" />
    <path
       style="fill:none;fill-opacity:1;stroke:#ffffff;stroke-width:10;stroke-miterlimit:4;stroke-dasharray:none"
       id="path853"
       sodipodi:type="arc"
       sodipodi:cx="512"
       sodipodi:cy="307.20001"
       sodipodi:rx="90"
       sodipodi:ry="90"
       sodipodi:start="4.712389"
       sodipodi:end="5.4663712"
       sodipodi:open="true"
       d="m 512,217.20001 a 90,90 0 0 1 61.60924,24.39282" />
    <path
       style="fill:none;fill-opacity:1;stroke:#ffffff;stroke-width:10;stroke-miterlimit:4;stroke-dasharray:none"
       id="path855"
       sodipodi:type="arc"
       sodipodi:cx="716.79999"
       sodipodi:cy="307.20001"
       sodipodi:rx="90"
       sodipodi:ry="90"
       sodipodi:start="4.712389"
       sodipodi:end="5.5292031"
       sodipodi:open="true"
       d="m 716.79999,217.20001 a 90,90 0 0 1 65.60718,28.39076" />
    <path
       style="fill:none;fill-opacity:1;stroke:#ffffff;stroke-width:10;stroke-miterlimit:4;stroke-dasharray:none"
       id="path857"
       sodipodi:type="arc"
       sodipodi:cx="921.59998"
       sodipodi:cy="307.20001"
       sodipodi:rx="90"
       sodipodi:ry="90"
       sodipodi:start="4.712389"
       sodipodi:end="5.5920349"
       sodipodi:open="true"
       d="m 921.59998,217.20001 a 90,90 0 0 1 69.34619,32.63184" />
    <path
       style="fill:none;fill-opacity:1;stroke:#ffffff;stroke-width:10;stroke-miterlimit:4;stroke-dasharray:none"
       id="path859"
       sodipodi:type="arc"
       sodipodi:cx="1126.4"
       sodipodi:cy="307.20001"
       sodipodi:rx="90"
       sodipodi:ry="90"
       sodipodi:start="4.712389"
       sodipodi:end="5.6548668"
       sodipodi:open="true"
       d="m 1126.4,217.20001 a 90,90 0 0 1 72.8116,37.09933" />
    <path
       style="fill:none;fill-opacity:1;stroke:#ffffff;stroke-width:10;stroke-miterlimit:4;stroke-dasharray:none"
       id="path861"
       sodipodi:type="arc"
       sodipodi:cx="1331.2"
       sodipodi:cy="307.20001"
       sodipodi:rx="90"
       sodipodi:ry="90"
       sodipodi:start="4.712389"
       sodipodi:end="5.7176986"
       sodipodi:open="true"
       d="m 1331.2,217.20001 a 90,90 0 0 1 75.9895,41.77559" />
    <path
       style="fill:none;fill-opacity:1;stroke:#ffffff;stroke-width:10;stroke-miterlimit:4;stroke-dasharray:none"
       id="path863"
       sodipodi:type="arc"
       sodipodi:cx="1536"
       sodipodi:cy="307.20001"
       sodipodi:rx="90"
       sodipodi:ry="90"
       sodipodi:start="4.712389"
       sodipodi:end="5.7805305"
       sodipodi:open="true"
       d="m 1536,217.20001 a 90,90 0 0 1 78.8676,46.64217" />
    <path
       style="fill:none;fill-opacity:1;stroke:#ffffff;stroke-width:10;stroke-miterlimit:4;stroke-dasharray:none"
       id="path865"
       sodipodi:type="arc"
       sodipodi:cx="1740.8"
       sodipodi:cy="307.20001"
       sodipodi:rx="90"
       sodipodi:ry="90"
       sodipodi:start="4.712389"
       sodipodi:end="5.8433623"
       sodipodi:open="true"
       d="m 1740.8,217.20001 a 90,90 0 0 1 81.4345,51.67986" />
    <path
       style="fill:none;fill-opacity:1;stroke:#ffffff;stroke-width:10;stroke-miterlimit:4;stroke-dasharray:none"
       id="path867"
       sodipodi:type="arc"
       sodipodi:cx="1945.6"
       sodipodi:cy="307.20001"
       sodipodi:rx="90"
       sodipodi:ry="90"
       sodipodi:start="4.712389"
       sodipodi:end="5.9061942"
       sodipodi:open="true"
       d="m 1945.6,217.20001 a 90,90 0 0 1 83.6799,56.86879" />
    <path
       style="fill:none;fill-opacity:1;stroke:#ffffff;stroke-width:10;stroke-miterlimit:4;stroke-dasharray:none"
       id="path869"
       sodipodi:type="arc"
       sodipodi:cx="102.4"
       sodipodi:cy="512"
       sodipodi:rx="90"
       sodipodi:ry="90"
       sodipodi:start="4.712389"
       sodipodi:end="5.969026"
       sodipodi:open="true"
       d="m 102.4,422 a 90,90 0 0 1 85.59509,62.18847" />
    <path
       style="fill:none;fill-opacity:1;stroke:#ffffff;stroke-width:10;stroke-miterlimit:4;stroke-dasharray:none"
       id="path876"
       sodipodi:type="arc"
       sodipodi:cx="307.20001"
       sodipodi:cy="512"
       sodipodi:rx="90"
       sodipodi:ry="90"
       sodipodi:start="4.712389"
       sodipodi:end="6.0946897"
       sodipodi:open="true"
       d="m 307.20001,422 a 90,90 0 0 1 88.40585,73.13568" />
    <path
       style="fill:none;fill-opacity:1;stroke:#ffffff;stroke-width:10;stroke-miterlimit:4;stroke-dasharray:none"
       id="path878"
       sodipodi:type="arc"
       sodipodi:cx="512"
       sodipodi:cy="512"
       sodipodi:rx="90"
       sodipodi:ry="90"
       sodipodi:start="4.712389"
       sodipodi:end="6.1575216"
       sodipodi:open="true"
       d="m 512,422 a 90,90 0 0 1 89.29032,78.72001" />
    <path
       style="fill:none;fill-opacity:1;stroke:#ffffff;stroke-width:10;stroke-miterlimit:4;stroke-dasharray:none"
       id="path880"
       sodipodi:type="arc"
       sodipodi:cx="716.79999"
       sodipodi:cy="512"
       sodipodi:rx="90"
       sodipodi:ry="90"
       sodipodi:start="4.712389"
       sodipodi:end="6.2203535"
       sodipodi:open="true"
       d="m 716.79999,422 a 90,90 0 0 1 89.8224,84.34886" />
    <path
       style="fill:none;fill-opacity:1;stroke:#ffffff;stroke-width:10;stroke-miterlimit:4;stroke-dasharray:none"
       id="path882"
       sodipodi:type="arc"
       sodipodi:cx="921.59998"
       sodipodi:cy="512"
       sodipodi:rx="90"
       sodipodi:ry="90"
       sodipodi:start="4.712389"
       sodipodi:end="0"
       sodipodi:open="true"
       d="M 921.59998,422 A 90,90 0 0 1 985.23959,448.36039 90,90 0 0 1 1011.6,512" />
    <path
       style="fill:none;fill-opacity:1;stroke:#ffffff;stroke-width:10;stroke-miterlimit:4;stroke-dasharray:none"
       id="path884"
       sodipodi:type="arc"
       sodipodi:cx="1126.4"
       sodipodi:cy="512"
       sodipodi:rx="90"
       sodipodi:ry="90"
       sodipodi:start="4.712389"
       sodipodi:end="0.062831853"
       sodipodi:open="true"
       d="m 1126.4,422 a 90,90 0 0 1 65.6072,28.39076 90,90 0 0 1 24.2152,67.26039" />
    <path
       style="fill:none;fill-opacity:1;stroke:#ffffff;stroke-width:10;stroke-miterlimit:4;stroke-dasharray:none"
       id="path886"
       sodipodi:type="arc"
       sodipodi:cx="1331.2"
       sodipodi:cy="512"
       sodipodi:rx="90"
       sodipodi:ry="90"
       sodipodi:start="4.712389"
       sodipodi:end="0.12566371"
       sodipodi:open="true"
       d="m 1331.2,422 a 90,90 0 0 1 67.5099,30.48193 90,90 0 0 1 21.7804,70.79806" />
    <path
       style="fill:none;fill-opacity:1;stroke:#ffffff;stroke-width:10;stroke-miterlimit:4;stroke-dasharray:none"
       id="path888"
       sodipodi:type="arc"
       sodipodi:cx="1536"
       sodipodi:cy="512"
       sodipodi:rx="90"
       sodipodi:ry="90"
       sodipodi:start="4.712389"
       sodipodi:end="0.18849556"
       sodipodi:open="true"
       d="m 1536,422 a 90,90 0 0 1 69.3462,32.63184 90,90 0 0 1 19.0597,74.23248" />
    <path
       style="fill:none;fill-opacity:1;stroke:#ffffff;stroke-width:10;stroke-miterlimit:4;stroke-dasharray:none"
       id="path890"
       sodipodi:type="arc"
       sodipodi:cx="1740.8"
       sodipodi:cy="512"
       sodipodi:rx="90"
       sodipodi:ry="90"
       sodipodi:start="4.712389"
       sodipodi:end="0.25132741"
       sodipodi:open="true"
       d="m 1740.8,422 a 90,90 0 0 1 71.114,34.83837 90,90 0 0 1 16.0585,77.54372" />
    <path
       style="fill:none;fill-opacity:1;stroke:#ffffff;stroke-width:10;stroke-miterlimit:4;stroke-dasharray:none"
       id="path892"
       sodipodi:type="arc"
       sodipodi:cx="1945.6"
       sodipodi:cy="512"
       sodipodi:rx="90"
       sodipodi:ry="90"
       sodipodi:start="4.712389"
       sodipodi:end="0.31415927"
       sodipodi:open="true"
       d="m 1945.6,422 a 90,90 0 0 1 72.8115,37.09933 90,90 0 0 1 12.7836,80.7122" />
    <path
       style="fill:none;fill-opacity:1;stroke:#ffffff;stroke-width:10;stroke-miterlimit:4;stroke-dasharray:none"
       id="path894"
       sodipodi:type="arc"
       sodipodi:cx="102.4"
       sodipodi:cy="716.79999"
       sodipodi:rx="90"
       sodipodi:ry="90"
       sodipodi:start="4.712389"
       sodipodi:end="0.37699112"
       sodipodi:open="true"
       d="m 102.4,626.79999 a 90,90 0 0 1 74.43725,39.41249 90,90 0 0 1 9.24264,83.71872" />
    <path
       style="fill:none;fill-opacity:1;stroke:#ffffff;stroke-width:10;stroke-miterlimit:4;stroke-dasharray:none"
       id="path896"
       sodipodi:type="arc"
       sodipodi:cx="307.20001"
       sodipodi:cy="716.79999"
       sodipodi:rx="90"
       sodipodi:ry="90"
       sodipodi:start="4.712389"
       sodipodi:end="0.43982297"
       sodipodi:open="true"
       d="m 307.20001,626.79999 a 90,90 0 0 1 75.98952,41.77559 90,90 0 0 1 5.44492,86.54454" />
    <path
       style="fill:none;fill-opacity:1;stroke:#ffffff;stroke-width:10;stroke-miterlimit:4;stroke-dasharray:none"
       id="path898"
       sodipodi:type="arc"
       sodipodi:cx="512"
       sodipodi:cy="716.79999"
       sodipodi:rx="90"
       sodipodi:ry="90"
       sodipodi:start="4.712389"
       sodipodi:end="0.50265482"
       sodipodi:open="true"
       d="m 512,626.79999 a 90,90 0 0 1 77.46678,44.18627 90,90 0 0 1 1.40082,89.17156" />
    <path
       style="fill:none;fill-opacity:1;stroke:#ffffff;stroke-width:10;stroke-miterlimit:4;stroke-dasharray:none"
       id="path900"
       sodipodi:type="arc"
       sodipodi:cx="716.79999"
       sodipodi:cy="716.79999"
       sodipodi:rx="90"
       sodipodi:ry="90"
       sodipodi:start="4.712389"
       sodipodi:end="0.56548668"
       sodipodi:open="true"
       d="m 716.79999,626.79999 a 90,90 0 0 1 78.8676,46.64217 90,90 0 0 1 -2.87809,91.58224" />
    <path
       style="fill:none;fill-opacity:1;stroke:#ffffff;stroke-width:10;stroke-miterlimit:4;stroke-dasharray:none"
       id="path902"
       sodipodi:type="arc"
       sodipodi:cx="921.59998"
       sodipodi:cy="716.79999"
       sodipodi:rx="90"
       sodipodi:ry="90"
       sodipodi:start="4.712389"
       sodipodi:end="0.62831853"
       sodipodi:open="true"
       d="m 921.59998,626.79999 a 90,90 0 0 1 80.19062,49.14085 90,90 0 0 1 -7.37909,93.75982" />
    <path
       style="fill:none;fill-opacity:1;stroke:#ffffff;stroke-width:10;stroke-miterlimit:4;stroke-dasharray:none"
       id="path904"
       sodipodi:type="arc"
       sodipodi:cx="1126.4"
       sodipodi:cy="716.79999"
       sodipodi:rx="90"
       sodipodi:ry="90"
       sodipodi:start="4.712389"
       sodipodi:end="0.69115038"
       sodipodi:open="true"
       d="m 1126.4,626.79999 a 90,90 0 0 1 81.4345,51.67986 90,90 0 0 1 -12.0883,95.6883" />
    <path
       style="fill:none;fill-opacity:1;stroke:#ffffff;stroke-width:10;stroke-miterlimit:4;stroke-dasharray:none"
       id="path906"
       sodipodi:type="arc"
       sodipodi:cx="1331.2"
       sodipodi:cy="716.79999"
       sodipodi:rx="90"
       sodipodi:ry="90"
       sodipodi:start="4.712389"
       sodipodi:end="0.75398224"
       sodipodi:open="true"
       d="m 1331.2,626.79999 a 90,90 0 0 1 82.5979,54.25669 90,90 0 0 1 -16.9908,97.35255" />
    <path
       style="fill:none;fill-opacity:1;stroke:#ffffff;stroke-width:10;stroke-miterlimit:4;stroke-dasharray:none"
       id="path908"
       sodipodi:type="arc"
       sodipodi:cx="1536"
       sodipodi:cy="716.79999"
       sodipodi:rx="90"
       sodipodi:ry="90"
       sodipodi:start="4.712389"
       sodipodi:end="0.81681409"
       sodipodi:open="true"
       d="m 1536,626.79999 a 90,90 0 0 1 83.6799,56.86879 90,90 0 0 1 -22.0707,98.73838" />
    <path
       style="fill:none;fill-opacity:1;stroke:#ffffff;stroke-width:10;stroke-miterlimit:4;stroke-dasharray:none"
       id="path910"
       sodipodi:type="arc"
       sodipodi:cx="1740.8"
       sodipodi:cy="716.79999"
       sodipodi:rx="90"
       sodipodi:ry="90"
       sodipodi:start="4.712389"
       sodipodi:end="0.87964594"
       sodipodi:open="true"
       d="m 1740.8,626.79999 a 90,90 0 0 1 84.6793,59.51358 90,90 0 0 1 -27.3111,99.83261" />
    <path
       style="fill:none;fill-opacity:1;stroke:#ffffff;stroke-width:10;stroke-miterlimit:4;stroke-dasharray:none"
       id="path912"
       sodipodi:type="arc"
       sodipodi:cx="1945.6"
       sodipodi:cy="716.79999"
       sodipodi:rx="90"
       sodipodi:ry="90"
       sodipodi:start="4.712389"
       sodipodi:end="0.9424778"
       sodipodi:open="true"
       d="m 1945.6,626.79999 a 90,90 0 0 1 85.5951,62.18847 90,90 0 0 1 -32.6945,100.62306" />
    <path
       style="fill:none;fill-opacity:1;stroke:#ffffff;stroke-width:10;stroke-miterlimit:4;stroke-dasharray:none"
       id="path914"
       sodipodi:type="arc"
       sodipodi:cx="102.4"
       sodipodi:cy="921.59998"
       sodipodi:rx="90"
       sodipodi:ry="90"
       sodipodi:start="4.712389"
       sodipodi:end="1.0053096"
       sodipodi:open="true"
       d="m 102.4,831.59998 a 90,90 0 0 1 86.42643,64.89079 90,90 0 0 1 -38.20201,101.09872" />
    <path
       style="fill:none;fill-opacity:1;stroke:#ffffff;stroke-width:10;stroke-miterlimit:4;stroke-dasharray:none"
       id="path916"
       sodipodi:type="arc"
       sodipodi:cx="307.20001"
       sodipodi:cy="921.59998"
       sodipodi:rx="90"
       sodipodi:ry="90"
       sodipodi:start="4.712389"
       sodipodi:end="1.0681415"
       sodipodi:open="true"
       d="m 307.20001,831.59998 a 90,90 0 0 1 87.17249,67.61791 90,90 0 0 1 -43.81466,101.24971" />
    <path
       style="fill:none;fill-opacity:1;stroke:#ffffff;stroke-width:10;stroke-miterlimit:4;stroke-dasharray:none"
       id="path918"
       sodipodi:type="arc"
       sodipodi:cx="512"
       sodipodi:cy="921.59998"
       sodipodi:rx="90"
       sodipodi:ry="90"
       sodipodi:start="4.712389"
       sodipodi:end="1.1309734"
       sodipodi:open="true"
       d="m 512,831.59998 a 90,90 0 0 1 87.83251,70.36711 90,90 0 0 1 -49.51238,101.06731" />
    <path
       style="fill:none;fill-opacity:1;stroke:#ffffff;stroke-width:10;stroke-miterlimit:4;stroke-dasharray:none"
       id="path920"
       sodipodi:type="arc"
       sodipodi:cx="716.79999"
       sodipodi:cy="921.59998"
       sodipodi:rx="90"
       sodipodi:ry="90"
       sodipodi:start="4.712389"
       sodipodi:end="1.1938052"
       sodipodi:open="true"
       d="m 716.79999,831.59998 a 90,90 0 0 1 88.40585,73.13568 90,90 0 0 1 -55.27464,100.54424" />
    <path
       style="fill:none;fill-opacity:1;stroke:#ffffff;stroke-width:10;stroke-miterlimit:4;stroke-dasharray:none"
       id="path922"
       sodipodi:type="arc"
       sodipodi:cx="921.59998"
       sodipodi:cy="921.59998"
       sodipodi:rx="90"
       sodipodi:ry="90"
       sodipodi:start="4.712389"
       sodipodi:end="1.2566371"
       sodipodi:open="true"
       d="m 921.59998,831.59998 a 90,90 0 0 1 88.89192,75.9209 90,90 0 0 1 -61.0804,99.67422" />
    <path
       style="fill:none;fill-opacity:1;stroke:#ffffff;stroke-width:10;stroke-miterlimit:4;stroke-dasharray:none"
       id="path924"
       sodipodi:type="arc"
       sodipodi:cx="1126.4"
       sodipodi:cy="921.59998"
       sodipodi:rx="90"
       sodipodi:ry="90"
       sodipodi:start="4.712389"
       sodipodi:end="1.3194689"
       sodipodi:open="true"
       d="m 1126.4,831.59998 a 90,90 0 0 1 89.2903,78.72 90,90 0 0 1 -66.9082,98.45252" />
    <path
       style="fill:none;fill-opacity:1;stroke:#ffffff;stroke-width:10;stroke-miterlimit:4;stroke-dasharray:none"
       id="path926"
       sodipodi:type="arc"
       sodipodi:cx="1331.2"
       sodipodi:cy="921.59998"
       sodipodi:rx="90"
       sodipodi:ry="90"
       sodipodi:start="4.712389"
       sodipodi:end="1.3823008"
       sodipodi:open="true"
       d="m 1331.2,831.59998 a 90,90 0 0 1 89.6005,81.53025 90,90 0 0 1 -72.7362,96.87557" />
    <path
       style="fill:none;fill-opacity:1;stroke:#ffffff;stroke-width:10;stroke-miterlimit:4;stroke-dasharray:none"
       id="path928"
       sodipodi:type="arc"
       sodipodi:cx="1536"
       sodipodi:cy="921.59998"
       sodipodi:rx="90"
       sodipodi:ry="90"
       sodipodi:start="4.712389"
       sodipodi:end="1.4451326"
       sodipodi:open="true"
       d="m 1536,831.59998 a 90,90 0 0 1 89.8224,84.34885 90,90 0 0 1 -78.5424,94.94147" />
    <path
       style="fill:none;fill-opacity:1;stroke:#ffffff;stroke-width:10;stroke-miterlimit:4;stroke-dasharray:none"
       id="path930"
       sodipodi:type="arc"
       sodipodi:cx="1740.8"
       sodipodi:cy="921.59998"
       sodipodi:rx="90"
       sodipodi:ry="90"
       sodipodi:start="4.712389"
       sodipodi:end="1.5079645"
       sodipodi:open="true"
       d="m 1740.8,831.59998 a 90,90 0 0 1 89.9556,87.17303 90,90 0 0 1 -84.3044,92.64939" />
    <path
       style="fill:none;fill-opacity:1;stroke:#ffffff;stroke-width:10;stroke-miterlimit:4;stroke-dasharray:none"
       id="path932"
       sodipodi:type="arc"
       sodipodi:cx="1945.6"
       sodipodi:cy="921.59998"
       sodipodi:rx="90"
       sodipodi:ry="90"
       sodipodi:start="4.712389"
       sodipodi:end="1.5707963"
       sodipodi:open="true"
       d="m 1945.6,831.59998 a 90,90 0 0 1 90,89.99999 90,90 0 0 1 -90,90.00003" />
    <path
       style="fill:none;fill-opacity:1;stroke:#ffffff;stroke-width:10;stroke-miterlimit:4;stroke-dasharray:none"
       id="path934"
       sodipodi:type="arc"
       sodipodi:cx="102.4"
       sodipodi:cy="1126.4"
       sodipodi:rx="90"
       sodipodi:ry="90"
       sodipodi:start="4.712389"
       sodipodi:end="1.6336282"
       sodipodi:open="true"
       d="m 102.4,1036.4 a 90,90 0 0 1 78.8676,46.6422 90,90 0 0 1 -2.87809,91.5822 90,90 0 0 1 -81.640657,41.598" />
    <path
       style="fill:none;fill-opacity:1;stroke:#ffffff;stroke-width:10;stroke-miterlimit:4;stroke-dasharray:none"
       id="path936"
       sodipodi:type="arc"
       sodipodi:cx="307.20001"
       sodipodi:cy="1126.4"
       sodipodi:rx="90"
       sodipodi:ry="90"
       sodipodi:start="4.712389"
       sodipodi:end="1.69646"
       sodipodi:open="true"
       d="m 307.20001,1036.4 a 90,90 0 0 1 79.75832,48.3034 90,90 0 0 1 -5.85489,93.0608 90,90 0 0 1 -85.18342,37.9261" />
    <path
       style="fill:none;fill-opacity:1;stroke:#ffffff;stroke-width:10;stroke-miterlimit:4;stroke-dasharray:none"
       id="path938"
       sodipodi:type="arc"
       sodipodi:cx="512"
       sodipodi:cy="1126.4"
       sodipodi:rx="90"
       sodipodi:ry="90"
       sodipodi:start="4.712389"
       sodipodi:end="1.7592919"
       sodipodi:open="true"
       d="m 512,1036.4 a 90,90 0 0 1 80.61406,49.9829 90,90 0 0 1 -8.92637,94.431 90,90 0 0 1 -88.55201,33.992" />
    <path
       style="fill:none;fill-opacity:1;stroke:#ffffff;stroke-width:10;stroke-miterlimit:4;stroke-dasharray:none"
       id="path940"
       sodipodi:type="arc"
       sodipodi:cx="716.79999"
       sodipodi:cy="1126.4"
       sodipodi:rx="90"
       sodipodi:ry="90"
       sodipodi:start="4.712389"
       sodipodi:end="1.8221237"
       sodipodi:open="true"
       d="m 716.79999,1036.4 a 90,90 0 0 1 81.43443,51.6799 90,90 0 0 1 -12.08824,95.6883 90,90 0 0 1 -91.72828,29.8043" />
    <path
       style="fill:none;fill-opacity:1;stroke:#ffffff;stroke-width:10;stroke-miterlimit:4;stroke-dasharray:none"
       id="path942"
       sodipodi:type="arc"
       sodipodi:cx="921.59998"
       sodipodi:cy="1126.4"
       sodipodi:rx="90"
       sodipodi:ry="90"
       sodipodi:start="4.712389"
       sodipodi:end="1.8849556"
       sodipodi:open="true"
       d="m 921.59998,1036.4 a 90,90 0 0 1 82.21912,53.3937 90,90 0 0 1 -15.33609,96.8281 90,90 0 0 1 -94.69456,25.3733" />
    <path
       style="fill:none;fill-opacity:1;stroke:#ffffff;stroke-width:10;stroke-miterlimit:4;stroke-dasharray:none"
       id="path944"
       sodipodi:type="arc"
       sodipodi:cx="1126.4"
       sodipodi:cy="1126.4"
       sodipodi:rx="90"
       sodipodi:ry="90"
       sodipodi:start="4.712389"
       sodipodi:end="1.9477874"
       sodipodi:open="true"
       d="m 1126.4,1036.4 a 90,90 0 0 1 82.9677,55.1236 90,90 0 0 1 -18.6651,97.8461 90,90 0 0 1 -97.4338,20.7102" />
    <path
       style="fill:none;fill-opacity:1;stroke:#ffffff;stroke-width:10;stroke-miterlimit:4;stroke-dasharray:none"
       id="path946"
       sodipodi:type="arc"
       sodipodi:cx="1331.2"
       sodipodi:cy="1126.4"
       sodipodi:rx="90"
       sodipodi:ry="90"
       sodipodi:start="4.712389"
       sodipodi:end="2.0106193"
       sodipodi:open="true"
       d="m 1331.2,1036.4 a 90,90 0 0 1 83.6798,56.8688 90,90 0 0 1 -22.0706,98.7384 90,90 0 0 1 -99.9294,15.8273" />
    <path
       style="fill:none;fill-opacity:1;stroke:#ffffff;stroke-width:10;stroke-miterlimit:4;stroke-dasharray:none"
       id="path948"
       sodipodi:type="arc"
       sodipodi:cx="1536"
       sodipodi:cy="1126.4"
       sodipodi:rx="90"
       sodipodi:ry="90"
       sodipodi:start="4.712389"
       sodipodi:end="2.0734512"
       sodipodi:open="true"
       d="m 1536,1036.4 a 90,90 0 0 1 84.3554,58.6285 90,90 0 0 1 -25.5475,99.5011 90,90 0 0 1 -102.1657,10.738" />
    <path
       style="fill:none;fill-opacity:1;stroke:#ffffff;stroke-width:10;stroke-miterlimit:4;stroke-dasharray:none"
       id="path950"
       sodipodi:type="arc"
       sodipodi:cx="1740.8"
       sodipodi:cy="1126.4"
       sodipodi:rx="90"
       sodipodi:ry="90"
       sodipodi:start="4.712389"
       sodipodi:end="2.136283"
       sodipodi:open="true"
       d="m 1740.8,1036.4 a 90,90 0 0 1 84.9939,60.402 90,90 0 0 1 -29.0906,100.1304 90,90 0 0 1 -104.1277,5.4571" />
    <path
       style="fill:none;fill-opacity:1;stroke:#ffffff;stroke-width:10;stroke-miterlimit:4;stroke-dasharray:none"
       id="path952"
       sodipodi:type="arc"
       sodipodi:cx="1945.6"
       sodipodi:cy="1126.4"
       sodipodi:rx="90"
       sodipodi:ry="90"
       sodipodi:start="4.712389"
       sodipodi:end="2.1991149"
       sodipodi:open="true"
       d="m 1945.6,1036.4 a 90,90 0 0 1 85.5951,62.1885 90,90 0 0 1 -32.6945,100.6231 90,90 0 0 1 -105.8013,0" />
    <path
       style="fill:none;fill-opacity:1;stroke:#ffffff;stroke-width:10;stroke-miterlimit:4;stroke-dasharray:none"
       id="path954"
       sodipodi:type="arc"
       sodipodi:cx="102.4"
       sodipodi:cy="1331.2"
       sodipodi:rx="90"
       sodipodi:ry="90"
       sodipodi:start="4.712389"
       sodipodi:end="2.2619467"
       sodipodi:open="true"
       d="m 102.4,1241.2 a 90,90 0 0 1 86.15876,63.9871 90,90 0 0 1 -36.35352,100.9758 90,90 0 0 1 -107.173397,-5.6168" />
    <path
       style="fill:none;fill-opacity:1;stroke:#ffffff;stroke-width:10;stroke-miterlimit:4;stroke-dasharray:none"
       id="path956"
       sodipodi:type="arc"
       sodipodi:cx="307.20001"
       sodipodi:cy="1331.2"
       sodipodi:rx="90"
       sodipodi:ry="90"
       sodipodi:start="4.712389"
       sodipodi:end="2.3247786"
       sodipodi:open="true"
       d="m 307.20001,1241.2 a 90,90 0 0 1 86.68463,65.7972 90,90 0 0 1 -40.0622,101.1855 90,90 0 0 1 -108.23167,-11.3756" />
    <path
       style="fill:none;fill-opacity:1;stroke:#ffffff;stroke-width:10;stroke-miterlimit:4;stroke-dasharray:none"
       id="path958"
       sodipodi:type="arc"
       sodipodi:cx="512"
       sodipodi:cy="1331.2"
       sodipodi:rx="90"
       sodipodi:ry="90"
       sodipodi:start="4.712389"
       sodipodi:end="2.3876104"
       sodipodi:open="true"
       d="m 512,1241.2 a 90,90 0 0 1 87.17248,67.6179 90,90 0 0 1 -43.81465,101.2497 90,90 0 0 1 -108.96501,-17.2584" />
    <path
       style="fill:none;fill-opacity:1;stroke:#ffffff;stroke-width:10;stroke-miterlimit:4;stroke-dasharray:none"
       id="path960"
       sodipodi:type="arc"
       sodipodi:cx="716.79999"
       sodipodi:cy="1331.2"
       sodipodi:rx="90"
       sodipodi:ry="90"
       sodipodi:start="4.712389"
       sodipodi:end="2.4504423"
       sodipodi:open="true"
       d="m 716.79999,1241.2 a 90,90 0 0 1 87.6221,69.4484 90,90 0 0 1 -47.60494,101.1656 90,90 0 0 1 -109.36336,-23.2459" />
    <path
       style="fill:none;fill-opacity:1;stroke:#ffffff;stroke-width:10;stroke-miterlimit:4;stroke-dasharray:none"
       id="path962"
       sodipodi:type="arc"
       sodipodi:cx="921.59998"
       sodipodi:cy="1331.2"
       sodipodi:rx="90"
       sodipodi:ry="90"
       sodipodi:start="4.712389"
       sodipodi:end="2.5132741"
       sodipodi:open="true"
       d="m 921.59998,1241.2 a 90,90 0 0 1 88.03332,71.2879 90,90 0 0 1 -51.42703,100.9311 90,90 0 0 1 -109.41782,-29.3184" />
    <path
       style="fill:none;fill-opacity:1;stroke:#ffffff;stroke-width:10;stroke-miterlimit:4;stroke-dasharray:none"
       id="path964"
       sodipodi:type="arc"
       sodipodi:cx="1126.4"
       sodipodi:cy="1331.2"
       sodipodi:rx="90"
       sodipodi:ry="90"
       sodipodi:start="4.712389"
       sodipodi:end="2.576106"
       sodipodi:open="true"
       d="m 1126.4,1241.2 a 90,90 0 0 1 88.4059,73.1356 90,90 0 0 1 -55.2747,100.5442 90,90 0 0 1 -109.1207,-35.4554" />
    <path
       style="fill:none;fill-opacity:1;stroke:#ffffff;stroke-width:10;stroke-miterlimit:4;stroke-dasharray:none"
       id="path966"
       sodipodi:type="arc"
       sodipodi:cx="1331.2"
       sodipodi:cy="1331.2"
       sodipodi:rx="90"
       sodipodi:ry="90"
       sodipodi:start="4.712389"
       sodipodi:end="2.6389378"
       sodipodi:open="true"
       d="m 1331.2,1241.2 a 90,90 0 0 1 88.7396,74.9908 90,90 0 0 1 -59.1416,100.003 90,90 0 0 1 -108.4656,-41.636" />
    <path
       style="fill:none;fill-opacity:1;stroke:#ffffff;stroke-width:10;stroke-miterlimit:4;stroke-dasharray:none"
       id="path968"
       sodipodi:type="arc"
       sodipodi:cx="1536"
       sodipodi:cy="1331.2"
       sodipodi:rx="90"
       sodipodi:ry="90"
       sodipodi:start="4.712389"
       sodipodi:end="2.7017697"
       sodipodi:open="true"
       d="m 1536,1241.2 a 90,90 0 0 1 89.0345,76.8525 90,90 0 0 1 -63.0216,99.3062 90,90 0 0 1 -107.4473,-47.8386" />
    <path
       style="fill:none;fill-opacity:1;stroke:#ffffff;stroke-width:10;stroke-miterlimit:4;stroke-dasharray:none"
       id="path970"
       sodipodi:type="arc"
       sodipodi:cx="1740.8"
       sodipodi:cy="1331.2"
       sodipodi:rx="90"
       sodipodi:ry="90"
       sodipodi:start="4.712389"
       sodipodi:end="2.7646015"
       sodipodi:open="true"
       d="m 1740.8,1241.2 a 90,90 0 0 1 89.2904,78.72 90,90 0 0 1 -66.9083,98.4524 90,90 0 0 1 -106.0619,-54.0412" />
    <path
       style="fill:none;fill-opacity:1;stroke:#ffffff;stroke-width:10;stroke-miterlimit:4;stroke-dasharray:none"
       id="path972"
       sodipodi:type="arc"
       sodipodi:cx="1945.6"
       sodipodi:cy="1331.2"
       sodipodi:rx="90"
       sodipodi:ry="90"
       sodipodi:start="4.712389"
       sodipodi:end="2.8274334"
       sodipodi:open="true"
       d="m 1945.6,1241.2 a 90,90 0 0 1 89.5069,80.5924 90,90 0 0 1 -70.7949,97.4408 90,90 0 0 1 -104.3071,-60.2217" />
    <path
       style="fill:none;fill-opacity:1;stroke:#ffffff;stroke-width:10;stroke-miterlimit:4;stroke-dasharray:none"
       id="path974"
       sodipodi:type="arc"
       sodipodi:cx="102.4"
       sodipodi:cy="1536"
       sodipodi:rx="90"
       sodipodi:ry="90"
       sodipodi:start="4.712389"
       sodipodi:end="2.8902652"
       sodipodi:open="true"
       d="m 102.4,1446 a 90,90 0 0 1 89.68436,82.469 90,90 0 0 1 -74.67517,96.2706 90,90 0 0 1 -102.181672,-66.3575" />
    <path
       style="fill:none;fill-opacity:1;stroke:#ffffff;stroke-width:10;stroke-miterlimit:4;stroke-dasharray:none"
       id="path976"
       sodipodi:type="arc"
       sodipodi:cx="307.20001"
       sodipodi:cy="1536"
       sodipodi:rx="90"
       sodipodi:ry="90"
       sodipodi:start="4.712389"
       sodipodi:end="2.9530971"
       sodipodi:open="true"
       d="m 307.20001,1446 a 90,90 0 0 1 89.82241,84.3489 90,90 0 0 1 -78.54242,94.9414 90,90 0 0 1 -99.68584,-72.426" />
    <path
       style="fill:none;fill-opacity:1;stroke:#ffffff;stroke-width:10;stroke-miterlimit:4;stroke-dasharray:none"
       id="path978"
       sodipodi:type="arc"
       sodipodi:cx="512"
       sodipodi:cy="1536"
       sodipodi:rx="90"
       sodipodi:ry="90"
       sodipodi:start="4.712389"
       sodipodi:end="3.0159289"
       sodipodi:open="true"
       d="m 512,1446 a 90,90 0 0 1 89.92105,86.2312 90,90 0 0 1 -82.39004,93.4532 90,90 0 0 1 -96.82133,-78.4044" />
    <path
       style="fill:none;fill-opacity:1;stroke:#ffffff;stroke-width:10;stroke-miterlimit:4;stroke-dasharray:none"
       id="path980"
       sodipodi:type="arc"
       sodipodi:cx="716.79999"
       sodipodi:cy="1536"
       sodipodi:rx="90"
       sodipodi:ry="90"
       sodipodi:start="4.712389"
       sodipodi:end="3.0787608"
       sodipodi:open="true"
       d="m 716.79999,1446 a 90,90 0 0 1 89.98026,88.1152 90,90 0 0 1 -86.21145,91.8059 90,90 0 0 1 -93.59122,-84.27" />
    <path
       style="fill:none;fill-opacity:1;stroke:#ffffff;stroke-width:10;stroke-miterlimit:4;stroke-dasharray:none"
       id="path982"
       sodipodi:type="arc"
       sodipodi:cx="921.59998"
       sodipodi:cy="1536"
       sodipodi:rx="90"
       sodipodi:ry="90"
       sodipodi:start="4.712389"
       sodipodi:end="3.1415927"
       sodipodi:open="true"
       d="m 921.59998,1446 a 90,90 0 0 1 83.14912,55.5585 90,90 0 0 1 -19.50952,98.0811 90,90 0 0 1 -98.08112,19.5096 A 90,90 0 0 1 831.59998,1536" />
    <path
       style="fill:none;fill-opacity:1;stroke:#ffffff;stroke-width:10;stroke-miterlimit:4;stroke-dasharray:none"
       id="path986"
       sodipodi:type="arc"
       sodipodi:cx="1126.4"
       sodipodi:cy="1536"
       sodipodi:rx="90"
       sodipodi:ry="90"
       sodipodi:start="4.712389"
       sodipodi:end="3.2044245"
       sodipodi:open="true"
       d="m 1126.4,1446 a 90,90 0 0 1 83.6799,56.8688 90,90 0 0 1 -22.0706,98.7384 90,90 0 0 1 -99.9294,15.8272 90,90 0 0 1 -51.5023,-87.0855" />
    <path
       style="fill:none;fill-opacity:1;stroke:#ffffff;stroke-width:10;stroke-miterlimit:4;stroke-dasharray:none"
       id="path988"
       sodipodi:type="arc"
       sodipodi:cx="1331.2"
       sodipodi:cy="1536"
       sodipodi:rx="90"
       sodipodi:ry="90"
       sodipodi:start="4.712389"
       sodipodi:end="3.2672564"
       sodipodi:open="true"
       d="m 1331.2,1446 a 90,90 0 0 1 84.1899,58.1873 90,90 0 0 1 -24.6719,99.3227 90,90 0 0 1 -101.6317,12.0289 90,90 0 0 1 -47.1767,-90.8189" />
    <path
       style="fill:none;fill-opacity:1;stroke:#ffffff;stroke-width:10;stroke-miterlimit:4;stroke-dasharray:none"
       id="path990"
       sodipodi:type="arc"
       sodipodi:cx="1536"
       sodipodi:cy="1536"
       sodipodi:rx="90"
       sodipodi:ry="90"
       sodipodi:start="4.712389"
       sodipodi:end="3.3300882"
       sodipodi:open="true"
       d="m 1536,1446 a 90,90 0 0 1 84.6793,59.5136 90,90 0 0 1 -27.3111,99.8326 90,90 0 0 1 -103.1819,8.1206 90,90 0 0 1 -42.5922,-94.3311" />
    <path
       style="fill:none;fill-opacity:1;stroke:#ffffff;stroke-width:10;stroke-miterlimit:4;stroke-dasharray:none"
       id="path992"
       sodipodi:type="arc"
       sodipodi:cx="1740.8"
       sodipodi:cy="1536"
       sodipodi:rx="90"
       sodipodi:ry="90"
       sodipodi:start="4.712389"
       sodipodi:end="3.3929201"
       sodipodi:open="true"
       d="m 1740.8,1446 a 90,90 0 0 1 85.1477,60.8474 90,90 0 0 1 -29.986,100.2666 90,90 0 0 1 -104.5737,4.1087 90,90 0 0 1 -37.7604,-97.6048" />
    <path
       style="fill:none;fill-opacity:1;stroke:#ffffff;stroke-width:10;stroke-miterlimit:4;stroke-dasharray:none"
       id="path994"
       sodipodi:type="arc"
       sodipodi:cx="1945.6"
       sodipodi:cy="1536"
       sodipodi:rx="90"
       sodipodi:ry="90"
       sodipodi:start="4.712389"
       sodipodi:end="3.4557519"
       sodipodi:open="true"
       d="m 1945.6,1446 a 90,90 0 0 1 85.5951,62.1885 90,90 0 0 1 -32.6945,100.623 90,90 0 0 1 -105.8013,0 90,90 0 0 1 -32.6944,-100.623" />
    <path
       style="fill:none;fill-opacity:1;stroke:#ffffff;stroke-width:10;stroke-miterlimit:4;stroke-dasharray:none"
       id="path996"
       sodipodi:type="arc"
       sodipodi:cx="102.4"
       sodipodi:cy="1740.8"
       sodipodi:rx="90"
       sodipodi:ry="90"
       sodipodi:start="4.712389"
       sodipodi:end="3.5185838"
       sodipodi:open="true"
       d="m 102.4,1650.8 a 90,90 0 0 1 86.02137,63.5364 90,90 0 0 1 -35.43387,100.9009 90,90 0 0 1 -106.859339,-4.1985 90,90 0 0 1 -27.408042,-103.37" />
    <path
       style="fill:none;fill-opacity:1;stroke:#ffffff;stroke-width:10;stroke-miterlimit:4;stroke-dasharray:none"
       id="path998"
       sodipodi:type="arc"
       sodipodi:cx="307.20001"
       sodipodi:cy="1740.8"
       sodipodi:rx="90"
       sodipodi:ry="90"
       sodipodi:start="4.712389"
       sodipodi:end="3.5814156"
       sodipodi:open="true"
       d="m 307.20001,1650.8 a 90,90 0 0 1 86.42643,64.8908 90,90 0 0 1 -38.20202,101.0988 90,90 0 0 1 -107.74247,-8.4796 90,90 0 0 1 -21.91637,-105.8301" />
    <path
       style="fill:none;fill-opacity:1;stroke:#ffffff;stroke-width:10;stroke-miterlimit:4;stroke-dasharray:none"
       id="path1000"
       sodipodi:type="arc"
       sodipodi:cx="512"
       sodipodi:cy="1740.8"
       sodipodi:rx="90"
       sodipodi:ry="90"
       sodipodi:start="4.712389"
       sodipodi:end="3.6442475"
       sodipodi:open="true"
       d="m 512,1650.8 a 90,90 0 0 1 86.81017,66.2515 90,90 0 0 1 -40.99644,101.2153 90,90 0 0 1 -108.44588,-12.8354 90,90 0 0 1 -16.23545,-107.9892" />
    <path
       style="fill:none;fill-opacity:1;stroke:#ffffff;stroke-width:10;stroke-miterlimit:4;stroke-dasharray:none"
       id="path1002"
       sodipodi:type="arc"
       sodipodi:cx="716.79999"
       sodipodi:cy="1740.8"
       sodipodi:rx="90"
       sodipodi:ry="90"
       sodipodi:start="4.712389"
       sodipodi:end="3.7070793"
       sodipodi:open="true"
       d="m 716.79999,1650.8 a 90,90 0 0 1 87.17248,67.618 90,90 0 0 1 -43.81465,101.2496 90,90 0 0 1 -108.96501,-17.2583 90,90 0 0 1 -10.38234,-109.8337" />
    <path
       style="fill:none;fill-opacity:1;stroke:#ffffff;stroke-width:10;stroke-miterlimit:4;stroke-dasharray:none"
       id="path1004"
       sodipodi:type="arc"
       sodipodi:cx="921.59998"
       sodipodi:cy="1740.8"
       sodipodi:rx="90"
       sodipodi:ry="90"
       sodipodi:start="4.712389"
       sodipodi:end="3.7699112"
       sodipodi:open="true"
       d="m 921.59998,1650.8 a 90,90 0 0 1 87.51332,68.99 90,90 0 0 1 -46.65418,101.2006 90,90 0 0 1 -109.29568,-21.7402 90,90 0 0 1 -4.37499,-111.351" />
    <path
       style="fill:none;fill-opacity:1;stroke:#ffffff;stroke-width:10;stroke-miterlimit:4;stroke-dasharray:none"
       id="path1006"
       sodipodi:type="arc"
       sodipodi:cx="1126.4"
       sodipodi:cy="1740.8"
       sodipodi:rx="90"
       sodipodi:ry="90"
       sodipodi:start="4.712389"
       sodipodi:end="3.832743"
       sodipodi:open="true"
       d="m 1126.4,1650.8 a 90,90 0 0 1 87.8325,70.3672 90,90 0 0 1 -49.5123,101.0673 90,90 0 0 1 -109.4341,-26.2728 90,90 0 0 1 1.7677,-112.5298" />
    <path
       style="fill:none;fill-opacity:1;stroke:#ffffff;stroke-width:10;stroke-miterlimit:4;stroke-dasharray:none"
       id="path1008"
       sodipodi:type="arc"
       sodipodi:cx="1331.2"
       sodipodi:cy="1740.8"
       sodipodi:rx="90"
       sodipodi:ry="90"
       sodipodi:start="4.712389"
       sodipodi:end="3.8955749"
       sodipodi:open="true"
       d="m 1331.2,1650.8 a 90,90 0 0 1 88.13,71.7492 90,90 0 0 1 -52.3867,100.8488 90,90 0 0 1 -109.3768,-30.8475 90,90 0 0 1 8.0263,-113.3597" />
    <path
       style="fill:none;fill-opacity:1;stroke:#ffffff;stroke-width:10;stroke-miterlimit:4;stroke-dasharray:none"
       id="path1010"
       sodipodi:type="arc"
       sodipodi:cx="1536"
       sodipodi:cy="1740.8"
       sodipodi:rx="90"
       sodipodi:ry="90"
       sodipodi:start="4.712389"
       sodipodi:end="3.9584067"
       sodipodi:open="true"
       d="m 1536,1650.8 a 90,90 0 0 1 88.4059,73.1357 90,90 0 0 1 -55.2747,100.5442 90,90 0 0 1 -109.1207,-35.4554 90,90 0 0 1 14.3803,-113.8316" />
    <path
       style="fill:none;fill-opacity:1;stroke:#ffffff;stroke-width:10;stroke-miterlimit:4;stroke-dasharray:none"
       id="path1012"
       sodipodi:type="arc"
       sodipodi:cx="1740.8"
       sodipodi:cy="1740.8"
       sodipodi:rx="90"
       sodipodi:ry="90"
       sodipodi:start="4.712389"
       sodipodi:end="4.0212386"
       sodipodi:open="true"
       d="m 1740.8,1650.8 a 90,90 0 0 1 88.6599,74.5264 90,90 0 0 1 -58.1734,100.1529 90,90 0 0 1 -108.6633,-40.088 90,90 0 0 1 20.8087,-113.9374" />
    <path
       style="fill:none;fill-opacity:1;stroke:#ffffff;stroke-width:10;stroke-miterlimit:4;stroke-dasharray:none"
       id="path1014"
       sodipodi:type="arc"
       sodipodi:cx="1945.6"
       sodipodi:cy="1740.8"
       sodipodi:rx="90"
       sodipodi:ry="90"
       sodipodi:start="4.712389"
       sodipodi:end="4.0840704"
       sodipodi:open="true"
       d="m 1945.6,1650.8 a 90,90 0 0 1 88.8919,75.9209 90,90 0 0 1 -61.0804,99.6742 90,90 0 0 1 -108.0021,-44.7359 90,90 0 0 1 27.2899,-113.6707" />
    <path
       style="fill:none;fill-opacity:1;stroke:#ffffff;stroke-width:10;stroke-miterlimit:4;stroke-dasharray:none"
       id="path1016"
       sodipodi:type="arc"
       sodipodi:cx="102.4"
       sodipodi:cy="1945.6"
       sodipodi:rx="90"
       sodipodi:ry="90"
       sodipodi:start="4.712389"
       sodipodi:end="4.1469023"
       sodipodi:open="true"
       d="m 102.4,1855.6 a 90,90 0 0 1 89.10213,77.3189 90,90 0 0 1 -63.99293,99.1075 90,90 0 0 1 -107.135493,-49.3901 90,90 0 0 1 33.801883,-113.0258" />
    <path
       style="fill:none;fill-opacity:1;stroke:#ffffff;stroke-width:10;stroke-miterlimit:4;stroke-dasharray:none"
       id="path1018"
       sodipodi:type="arc"
       sodipodi:cx="307.20001"
       sodipodi:cy="1945.6"
       sodipodi:rx="90"
       sodipodi:ry="90"
       sodipodi:start="4.712389"
       sodipodi:end="4.2097342"
       sodipodi:open="true"
       d="m 307.20001,1855.6 a 90,90 0 0 1 89.29033,78.72 90,90 0 0 1 -66.90824,98.4525 90,90 0 0 1 -106.06197,-54.0413 90,90 0 0 1 40.32206,-111.9988" />
    <path
       style="fill:none;fill-opacity:1;stroke:#ffffff;stroke-width:10;stroke-miterlimit:4;stroke-dasharray:none"
       id="path1020"
       sodipodi:type="arc"
       sodipodi:cx="512"
       sodipodi:cy="1945.6"
       sodipodi:rx="90"
       sodipodi:ry="90"
       sodipodi:start="4.712389"
       sodipodi:end="4.272566"
       sodipodi:open="true"
       d="m 512,1855.6 a 90,90 0 0 1 89.45649,80.1239 90,90 0 0 1 -69.8236,97.7086 90,90 0 0 1 -104.78057,-58.68 90,90 0 0 1 46.82754,-110.587" />
    <path
       style="fill:none;fill-opacity:1;stroke:#ffffff;stroke-width:10;stroke-miterlimit:4;stroke-dasharray:none"
       id="path1022"
       sodipodi:type="arc"
       sodipodi:cx="716.79999"
       sodipodi:cy="1945.6"
       sodipodi:rx="90"
       sodipodi:ry="90"
       sodipodi:start="4.712389"
       sodipodi:end="4.3353979"
       sodipodi:open="true"
       d="m 716.79999,1855.6 a 90,90 0 0 1 89.60057,81.5302 90,90 0 0 1 -72.73626,96.8756 90,90 0 0 1 -103.29074,-63.2966 90,90 0 0 1 53.29522,-108.7891" />
    <path
       style="fill:none;fill-opacity:1;stroke:#ffffff;stroke-width:10;stroke-miterlimit:4;stroke-dasharray:none"
       id="path1024"
       sodipodi:type="arc"
       sodipodi:cx="921.59998"
       sodipodi:cy="1945.6"
       sodipodi:rx="90"
       sodipodi:ry="90"
       sodipodi:start="4.712389"
       sodipodi:end="4.3982297"
       sodipodi:open="true"
       d="m 921.59998,1855.6 a 90,90 0 0 1 89.72252,82.9387 90,90 0 0 1 -75.64342,95.9532 90,90 0 0 1 -101.5924,-67.8818 90,90 0 0 1 59.70176,-106.6052" />
    <path
       style="fill:none;fill-opacity:1;stroke:#ffffff;stroke-width:10;stroke-miterlimit:4;stroke-dasharray:none"
       id="path1026"
       sodipodi:type="arc"
       sodipodi:cx="1126.4"
       sodipodi:cy="1945.6"
       sodipodi:rx="90"
       sodipodi:ry="90"
       sodipodi:start="4.712389"
       sodipodi:end="4.4610616"
       sodipodi:open="true"
       d="m 1126.4,1855.6 a 90,90 0 0 1 89.8224,84.3488 90,90 0 0 1 -78.5424,94.9415 90,90 0 0 1 -99.6858,-72.426 90,90 0 0 1 66.0237,-104.0368" />
    <path
       style="fill:none;fill-opacity:1;stroke:#ffffff;stroke-width:10;stroke-miterlimit:4;stroke-dasharray:none"
       id="path1028"
       sodipodi:type="arc"
       sodipodi:cx="1331.2"
       sodipodi:cy="1945.6"
       sodipodi:rx="90"
       sodipodi:ry="90"
       sodipodi:start="4.712389"
       sodipodi:end="4.5238934"
       sodipodi:open="true"
       d="m 1331.2,1855.6 a 90,90 0 0 1 89.9,85.7604 90,90 0 0 1 -81.4303,93.8402 90,90 0 0 1 -97.5719,-76.9195 90,90 0 0 1 72.2378,-101.087" />
    <path
       style="fill:none;fill-opacity:1;stroke:#ffffff;stroke-width:10;stroke-miterlimit:4;stroke-dasharray:none"
       id="path1030"
       sodipodi:type="arc"
       sodipodi:cx="1536"
       sodipodi:cy="1945.6"
       sodipodi:rx="90"
       sodipodi:ry="90"
       sodipodi:start="4.712389"
       sodipodi:end="4.5867253"
       sodipodi:open="true"
       d="m 1536,1855.6 a 90,90 0 0 1 89.9556,87.173 90,90 0 0 1 -84.3045,92.6494 90,90 0 0 1 -95.2517,-81.3527 90,90 0 0 1 78.3206,-97.76" />
    <path
       style="fill:none;fill-opacity:1;stroke:#ffffff;stroke-width:10;stroke-miterlimit:4;stroke-dasharray:none"
       id="path1032"
       sodipodi:type="arc"
       sodipodi:cx="1740.8"
       sodipodi:cy="1945.6"
       sodipodi:rx="90"
       sodipodi:ry="90"
       sodipodi:start="4.712389"
       sodipodi:end="4.6495571"
       sodipodi:open="true"
       d="m 1740.8,1855.6 a 90,90 0 0 1 89.9889,88.5863 90,90 0 0 1 -87.1619,91.3693 90,90 0 0 1 -92.727,-85.716 90,90 0 0 1 84.2489,-94.062" />
  </g>
</svg>
