<?xml version="1.0" encoding="UTF-8" standalone="no"?>
<!-- Created with Inkscape (http://www.inkscape.org/) -->

<svg
   xmlns:dc="http://purl.org/dc/elements/1.1/"
   xmlns:cc="http://creativecommons.org/ns#"
   xmlns:rdf="http://www.w3.org/1999/02/22-rdf-syntax-ns#"
   xmlns:svg="http://www.w3.org/2000/svg"
   xmlns="http://www.w3.org/2000/svg"
   xmlns:sodipodi="http://sodipodi.sourceforge.net/DTD/sodipodi-0.dtd"
   xmlns:inkscape="http://www.inkscape.org/namespaces/inkscape"
   width="2048px"
   height="2048px"
   viewBox="0 0 2048 2048"
   version="1.1"
   id="SVGRoot"
   enable-background="new"
   inkscape:version="0.92.3 (2405546, 2018-03-11)"
   sodipodi:docname="spiral-vent-grill-albedo.svg"
   inkscape:export-filename="C:\Users\Michael\Documents\Unity\Nebulex\Assets\Textures\Generic\Spiral Ventilation Grill\spiral-vent-grill-albedo.png"
   inkscape:export-xdpi="96"
   inkscape:export-ydpi="96">
  <sodipodi:namedview
     id="base"
     pagecolor="#ffffff"
     bordercolor="#666666"
     borderopacity="1.0"
     inkscape:pageopacity="0.0"
     inkscape:pageshadow="2"
     inkscape:zoom="0.45254834"
     inkscape:cx="769.73068"
     inkscape:cy="1313.9941"
     inkscape:document-units="px"
     inkscape:current-layer="layer1"
     showgrid="true"
     inkscape:window-width="1920"
     inkscape:window-height="986"
     inkscape:window-x="-11"
     inkscape:window-y="-11"
     inkscape:window-maximized="1"
     showguides="false">
    <inkscape:grid
       type="xygrid"
       id="grid1438"
       spacingx="1024"
       spacingy="1024" />
  </sodipodi:namedview>
  <defs
     id="defs815">
    <filter
       inkscape:collect="always"
       style="color-interpolation-filters:sRGB"
       id="filter1430">
      <feBlend
         inkscape:collect="always"
         mode="luminosity"
         in2="BackgroundImage"
         id="feBlend1432" />
    </filter>
  </defs>
  <metadata
     id="metadata818">
    <rdf:RDF>
      <cc:Work
         rdf:about="">
        <dc:format>image/svg+xml</dc:format>
        <dc:type
           rdf:resource="http://purl.org/dc/dcmitype/StillImage" />
        <dc:title></dc:title>
      </cc:Work>
    </rdf:RDF>
  </metadata>
  <g
     id="layer1"
     inkscape:groupmode="layer"
     inkscape:label="Layer 1"
     style="filter:url(#filter1430)">
    <rect
       style="fill:#000000;fill-opacity:1;stroke:#ffffff;stroke-width:3.77952766;stroke-miterlimit:4;stroke-dasharray:none"
       id="rect1436"
       width="2053.438"
       height="2056.2666"
       x="2.8284271"
       y="5.8756156" />
    <path
       sodipodi:type="spiral"
       style="fill:none;fill-rule:evenodd;stroke:#ffffff;stroke-width:3.77952766;stroke-miterlimit:4;stroke-dasharray:none"
       id="path1434"
       sodipodi:cx="1020"
       sodipodi:cy="1008"
       sodipodi:expansion="1"
       sodipodi:revolution="75"
       sodipodi:radius="1028.778"
       sodipodi:argument="-18.810665"
       sodipodi:t0="0.19"
       d="m 1012.4002,1203.32 c -107.5169,-2.9813 -194.14103,-95.8172 -191.14688,-203.0531 3.05411,-109.38354 97.51062,-197.50683 206.61308,-194.44025 111.2502,3.12695 200.8726,99.20399 197.7336,210.17305 -3.1998,113.1168 -100.8973,204.2384 -213.7331,201.027 -114.98338,-3.2726 -207.60415,-102.5907 -204.32025,-217.29311 3.34539,-116.85001 104.2841,-210.96996 220.85305,-207.61361 118.7167,3.4182 214.3358,105.97747 210.907,224.41312 -3.491,120.5832 -107.6709,217.7015 -227.9731,214.2002 -122.44986,-3.5637 -221.06737,-109.3642 -217.49362,-231.53302 3.63658,-124.31648 111.05758,-224.43319 235.09312,-220.78696 126.183,3.70935 227.799,112.75095 224.0803,238.65308 -3.7822,128.0497 -114.4444,231.1648 -242.2131,227.3736 C 880.88396,1240.5851 776.26964,1128.3023 780.13332,998.66696 784.061,866.88402 897.96438,760.77048 1029.4664,764.70665 c 133.6495,4.00045 241.2623,119.52443 237.2536,252.89305 -4.0732,135.5162 -121.2178,244.6281 -256.453,240.547 -137.38282,-4.146 -247.99401,-122.9112 -243.84035,-260.01306 4.21872,-139.2494 124.60455,-251.35983 263.57305,-247.13366 141.116,4.29148 254.7257,126.29792 250.427,267.13302 -4.3642,142.9827 -127.9913,258.0915 -270.693,253.7204 -144.8493,-4.437 -261.45742,-129.6847 -257.01372,-274.25307 4.50971,-146.71587 131.37804,-264.82324 277.81302,-260.30702 148.5825,4.58246 268.1891,133.07142 263.6004,281.37299 -4.6552,150.4491 -134.7648,271.555 -284.9331,266.8937 -152.31568,-4.7279 -274.92078,-136.4581 -270.18699,-288.49299 4.80066,-154.18233 138.15154,-278.28668 292.05299,-273.48036 156.049,4.87338 281.6526,139.8449 276.7737,295.61295 -4.9461,157.9156 -141.5383,285.0185 -299.173,280.0671 C 848.88484,1294.2479 720.28273,1156.035 725.30664,996.53369 730.3982,834.8849 870.23167,704.78352 1031.5996,709.87998 c 163.5154,5.16428 295.1161,146.6184 289.9471,309.85302 -5.237,165.382 -148.3118,298.4819 -313.413,293.2404 C 840.88506,1307.6636 706.2859,1162.9682 711.59998,996.00038 716.9824,826.88511 863.2985,690.78668 1032.133,696.17331 c 170.9818,5.45514 308.5795,153.3919 303.1204,324.09299 -5.5279,172.8485 -155.0853,311.9454 -327.653,306.4137 -174.71512,-5.6005 -315.31136,-156.7786 -309.70709,-331.21294 5.67326,-176.58173 158.47202,-318.67724 334.77299,-313.00042 178.4483,5.74597 322.0431,160.1654 316.2937,338.33296 -5.8186,180.315 -161.8588,325.409 -341.8929,319.5871 -182.1816,-5.8914 -328.77495,-163.5522 -322.88046,-345.45296 5.96408,-184.04819 165.24553,-332.14082 349.01296,-326.17377 185.9148,6.03678 335.5067,166.9389 329.4671,352.57293 -6.1095,187.7814 -168.6323,338.8726 -356.1329,332.7605 C 816.88572,1347.9112 664.29524,1183.7677 670.47997,994.40043 676.73484,802.88577 842.499,648.79601 1033.7329,655.05331 c 193.3813,6.32756 348.9703,173.7124 342.6405,366.81289 -6.4003,195.2479 -175.4058,352.3363 -370.373,345.9338 -197.11447,-6.4729 -355.70209,-177.0991 -349.22709,-373.93289 6.54563,-198.98112 178.79253,-359.06803 377.49289,-352.52047 200.8478,6.61832 362.434,180.4859 355.8138,381.05286 -6.691,202.7144 -182.1793,365.7999 -384.6129,359.1072 C 800.88615,1374.743 636.30136,1197.634 643.06664,993.33379 649.90302,786.88621 828.63267,620.80212 1034.7995,627.63997 c 208.3142,6.90907 375.8976,187.25941 368.9872,395.29293 -6.9818,210.1808 -188.9528,379.2635 -398.8529,372.2805 -212.04743,-7.0545 -382.6294,-190.6462 -375.57383,-402.41292 7.12712,-213.91405 192.33954,-385.99533 405.97293,-378.86718 215.7806,7.1998 389.3612,194.03292 382.1605,409.5329 -7.2725,217.6473 -195.7263,392.7271 -413.0929,385.4538 -219.51391,-7.3451 -396.09308,-197.4196 -388.7472,-416.65284 7.41784,-221.38052 199.11305,-399.45899 420.2129,-392.04053 223.2471,7.49052 402.8249,200.80642 395.3338,423.77287 -7.5632,225.1137 -202.4998,406.1908 -427.3328,398.6272 -226.98039,-7.6359 -409.55678,-204.1932 -401.92057,-430.89286 7.70854,-228.84698 205.88655,-412.92267 434.45287,-405.21387 230.7136,7.78121 416.2886,207.57992 408.5072,438.01283 -7.8539,232.5802 -209.2733,419.6545 -441.5728,411.8006 C 768.88703,1428.4068 580.31342,1225.3667 588.23997,991.20053 596.2392,754.88708 800.90002,564.81417 1036.9328,572.8133 c 238.1801,8.0719 429.7523,214.35343 421.6806,452.2528 -8.1446,240.0467 -216.0468,433.1182 -455.8129,424.9739 -241.91326,-8.2172 -436.4841,-217.7402 -428.2672,-459.37279 8.28991,-243.77991 219.43356,-439.85006 462.9328,-431.56058 245.6465,8.36258 443.216,221.12694 434.8539,466.49277 -8.4352,247.5132 -222.8203,446.582 -470.0528,438.1473 C 752.88746,1455.2388 552.31938,1239.233 560.82663,990.13389 569.40722,738.88752 787.0337,536.82012 1037.9994,545.39996 c 253.113,8.65326 456.6797,227.90045 448.0273,480.73284 -8.7259,254.9796 -229.5938,460.0456 -484.2928,451.3206 -256.84622,-8.7986 -463.41156,-231.2872 -454.61394,-487.85282 8.87125,-258.71285 232.98058,-466.7775 491.41284,-457.90728 260.5794,8.94391 470.1434,234.67395 461.2006,494.9728 -9.0166,262.4461 -236.3674,473.5093 -498.5328,464.4939 -264.3127,-9.0892 -476.8753,-238.0607 -467.78731,-502.09274 9.16191,-266.17931 239.75409,-480.24122 505.65281,-471.08063 268.0459,9.23456 483.6071,241.44747 474.3739,509.21277 -9.3072,269.9125 -243.1408,486.9731 -512.7727,477.6673 -271.77918,-9.3799 -490.33905,-244.8342 -480.96067,-516.33276 9.45255,-273.64577 246.5276,-493.70496 519.89277,-484.25398 275.5124,9.52521 497.0709,248.22098 487.5473,523.45274 -9.5979,277.379 -249.9143,500.4368 -527.0127,490.8407 -279.24567,-9.6706 -503.80281,-251.6078 -494.13404,-530.57277 9.74319,-281.11224 253.30111,-507.1687 534.13274,-497.42734 282.9789,9.81585 510.5346,254.99449 500.7207,537.69271 -9.8885,284.8455 -256.6879,513.9006 -541.25276,504.014 C 712.88855,1522.3189 482.33413,1273.8988 492.29329,987.46731 502.32711,698.8886 752.36791,466.83486 1040.666,476.86662 c 290.4453,10.10648 523.9984,261.768 513.894,551.93268 -10.1791,292.312 -263.4613,527.3644 -555.49268,517.1874 -294.17855,-10.2518 -530.73026,-265.1547 -520.4807,-559.05271 10.32445,-296.04517 266.84813,-534.0962 562.61268,-523.77403 297.9118,10.3971 537.4622,268.5415 527.0674,566.17274 -10.4698,299.7784 -270.2349,540.8281 -569.73269,530.3607 C 696.88899,1549.151 454.33998,1287.7651 464.87996,986.40068 475.49503,682.88904 738.5016,438.84071 1041.7327,449.45329 1347.1109,460.14102 1592.6586,724.76831 1581.9734,1029.866 1571.213,1337.1109 1304.965,1584.1578 998.00069,1573.4 688.8892,1562.567 440.3429,1294.6983 451.17329,985.86736 462.07898,674.88926 731.56844,424.84363 1042.266,435.74662 c 312.8447,10.97834 564.3896,282.08853 553.414,594.65268 -11.0509,314.7113 -283.7819,567.7556 -598.21263,556.7074 -316.57795,-11.1236 -571.12156,-285.4753 -560.00075,-601.77266 11.1963,-318.44457 287.16866,-574.4875 605.33268,-563.29409 320.3112,11.26896 577.8534,288.86205 566.5874,608.89265 -11.3416,322.1778 -290.5554,581.2194 -612.45264,569.8808 C 672.88964,1589.3991 412.34872,1308.5646 423.75995,984.80073 435.24686,658.88969 717.70213,396.84945 1043.3326,408.33329 c 327.7777,11.55955 591.3172,295.63555 579.7608,623.13261 -11.6322,329.6443 -297.329,594.6832 -626.69266,583.0541 C 664.88986,1602.8152 398.35163,1315.4977 410.05328,984.26741 421.8308,650.88991 710.76897,382.85235 1043.8659,394.62662 1379.11,406.47678 1648.6469,697.03568 1636.8,1031.9992 1624.8772,1369.11 1332.6976,1640.1462 995.86742,1628.2267 656.89007,1616.2313 384.35453,1322.4309 396.34662,983.73409 408.41473,642.89013 703.83582,368.85525 1044.3992,380.91995 c 342.7106,12.14076 618.2448,309.18258 606.1075,651.61265 -12.2134,344.5772 -310.8759,621.6107 -655.17259,609.4008 -346.44382,-12.2861 -624.97668,-312.5694 -612.69416,-658.73262 12.3587,-348.31044 314.26271,-628.34263 662.29265,-615.9875 350.177,12.43136 631.7085,315.95609 619.2808,665.85262 -12.504,352.0436 -317.6495,635.0745 -669.41261,622.5742 -353.91028,-12.5767 -638.44047,-319.3429 -625.86751,-672.97264 12.6493,-355.7769 321.03623,-641.80641 676.53262,-629.16085 357.6435,12.72195 645.1723,322.72961 632.4542,680.09259 -12.7946,359.5101 -324.423,648.5383 -683.65263,635.7475 C 632.89072,1656.4795 342.36321,1343.2304 355.22661,982.13414 368.1665,618.89078 683.03635,326.86394 1045.9992,339.79995 c 365.11,13.01253 658.6361,329.50311 645.6275,694.33255 -13.0852,366.9766 -331.1965,662.0021 -697.89254,648.9209 C 624.89094,1669.8956 328.3661,1350.1635 341.51994,981.60083 354.75042,610.891 676.1032,312.86682 1046.5325,326.09328 c 372.5764,13.30312 672.1,336.27663 658.8009,708.57252 -13.3758,374.4431 -337.97,675.4659 -712.13256,662.0943 -376.30968,-13.4485 -678.83185,-339.6634 -665.38756,-715.69259 13.52105,-378.1763 341.35676,-682.1978 719.25252,-668.6809 380.0429,13.5937 685.5638,343.05014 671.9743,722.81249 -13.6664,381.9096 -344.7436,688.9298 -726.37258,675.2676 -383.77614,-13.739 -692.29565,-346.4369 -678.56091,-729.93251 13.81164,-385.64276 348.13028,-695.6616 733.49249,-681.85425 387.5094,13.88429 699.0276,349.82366 685.1476,737.05256 -13.9569,389.376 -351.517,702.3935 -740.61249,688.4409 C 600.89159,1710.1438 286.37475,1370.963 300.39994,980.00088 314.50216,586.89165 655.30373,270.87547 1048.1325,284.97327 c 394.9758,14.17486 712.4913,356.59718 698.3209,751.29253 -14.2475,396.8424 -358.2906,715.8573 -754.85251,701.6143 -398.70908,-14.3202 -719.22326,-359.984 -704.90762,-758.41254 14.3928,-400.5757 361.67731,-722.58921 761.97253,-708.20095 402.4423,14.46543 725.9551,363.37068 711.4943,765.53249 C 1745.622,1441.108 1395.096,1766.1202 991.06757,1751.5867 584.89203,1736.976 258.3805,1384.8293 272.98661,978.93424 287.66997,570.89208 641.43743,242.88122 1049.1991,257.55994 c 409.9088,14.75601 739.419,370.1442 724.6676,779.77246 -14.8286,411.7754 -371.8376,742.7849 -783.33244,727.961 C 576.89224,1750.3921 244.38338,1391.7624 259.27994,978.40093 274.25387,562.8923 634.50427,228.8841 1049.7324,243.85327 c 417.3752,15.04658 752.8828,376.91771 737.841,794.01243 -15.1192,419.2419 -378.6111,756.2488 -797.57246,741.1344 C 568.89246,1763.8082 230.38625,1398.6956 245.57327,977.86761 260.83778,554.89252 627.57112,214.88697 1050.2657,230.1466 c 424.8417,15.33715 766.3466,383.69123 751.0144,808.2524 -15.4098,426.7084 -385.3846,769.7126 -811.81248,754.3077 -428.57494,-15.4824 -773.0785,-387.078 -757.60102,-815.37241 15.6913,-434.21128 385.00134,-776.58074 818.9324,-760.89435 436.0943,15.76458 779.9474,386.67836 764.1877,822.49246 -15.8378,437.9772 -388.3554,783.3139 -826.05239,767.481 C 549.07412,1790.5023 202.25379,1416.381 218.15993,976.80098 234.14435,535.05782 609.86937,186.75388 1051.3324,202.73327 c 443.6261,16.05769 793.4136,393.38646 777.361,836.73243 -16.131,445.5091 -395.0635,796.7803 -840.29241,780.6544 C 541.00892,1803.9158 188.25412,1423.3796 204.45327,976.26766 220.73079,526.99262 602.8708,172.7542 1051.8657,189.0266 c 451.158,16.3508 806.88,400.09456 790.5344,850.9724 -16.4241,453.041 -401.7716,810.2466 -854.53243,793.8277 C 532.94372,1817.3294 174.25444,1430.3781 190.7466,975.73434 207.31723,518.92742 595.87223,158.75452 1052.399,175.31993 c 458.6899,16.64391 820.3464,406.80266 803.7077,865.21237 -16.7171,460.5729 -408.4796,823.713 -868.77234,807.0011 -462.45584,-16.7905 -827.07961,-410.1567 -810.29443,-872.33237 16.86374,-464.33881 411.83373,-830.4462 875.89237,-813.58777 466.2218,16.93702 833.8128,413.51076 816.8811,879.45234 -17.0103,468.1048 -415.1878,837.1794 -883.01236,820.1745 C 516.81332,1844.1565 146.25507,1444.3753 163.33326,974.66771 180.49011,502.79702 581.87509,130.75515 1053.4656,147.9066 c 473.7537,17.23011 847.2792,420.21885 830.0545,893.6923 -17.3034,475.6367 -421.8959,850.6458 -897.25238,833.3478 -477.5196,-17.3766 -854.01233,-423.5729 -836.64112,-900.81231 17.44994,-479.40257 425.24992,-857.37893 904.3723,-839.93446 481.2856,17.52322 860.7456,426.92695 843.2278,907.93237 -17.5965,483.1685 -428.6039,864.1121 -911.49229,846.5211 -485.05149,-17.6698 -867.47871,-430.281 -849.81448,-915.05232 17.74305,-486.93446 431.95802,-870.8453 918.61237,-853.10782 488.8174,17.81632 874.2118,433.63505 856.4011,922.17234 -17.8896,490.7004 -435.3121,877.5785 -925.73231,859.6945 C 492.61772,1884.3972 104.25601,1465.371 122.21326,973.06776 140.24941,478.60142 560.87938,88.756091 1055.0656,106.78659 c 496.3493,18.10943 887.6782,440.34315 869.5745,936.41231 -18.1827,498.2323 -442.0202,891.0449 -939.97233,872.8678 C 484.55252,1897.8108 90.256324,1472.3695 108.50659,972.53444 126.83584,470.53622 553.88082,74.756402 1055.5989,93.079925 1559.4801,111.48245 1956.7435,540.13117 1938.3467,1043.7322 1919.8709,1549.4964 1489.6185,1948.2434 984.13446,1929.7734 476.48732,1911.2243 76.256635,1479.3681 94.799924,972.00113 113.42227,462.47102 546.88225,60.756712 1056.1322,79.373257 1567.5453,98.068879 1970.7432,533.1326 1952.0534,1044.2655 1933.2845,1557.5616 1496.617,1962.2431 983.60114,1943.4801 468.42212,1924.6379 62.256944,1486.3667 81.093256,971.46781 100.0087,454.40582 539.88368,46.757021 1056.6655,65.666589 c 518.945,18.988719 928.0774,460.467451 909.0946,979.132211 -19.062,520.828 -462.1445,931.444 -982.69228,912.3879 C 460.35692,1938.0515 48.257252,1493.3652 67.386588,970.93449 86.59513,446.34062 532.88511,32.757329 1057.1988,51.959921 1583.6757,71.241737 1998.7426,519.13547 1979.4667,1045.3322 1960.1117,1573.692 1510.6142,1990.2425 982.53451,1970.8934 452.29172,1951.465 34.257559,1500.3638 53.679921,970.40118 73.181557,438.27542 525.88654,18.757636 1057.7322,38.253254 1591.7409,57.828164 2012.7423,512.1369 1993.1734,1045.8655 1973.5252,1581.7572 1517.6127,2004.2422 982.00119,1984.6001 444.22653,1964.8786 20.257865,1507.3624 39.973253,969.86786 59.767984,430.21023 518.88797,4.7579414 1058.2655,24.546586 1599.8061,44.41459 2026.742,505.13833 2006.8801,1046.3988 1986.9388,1589.8224 1524.6113,2018.2419 981.46787,1998.3067 436.16133,1978.2922 6.2581702,1514.361 26.266585,969.33454 46.354409,422.14503 511.8894,-9.2417536 1058.7988,10.839918 1607.8713,31.001016 2040.7417,498.13976 2020.5867,1046.9321 2000.3524,1597.8876 1531.6099,2032.2416 980.93456,2012.0134 428.09613,1991.7058 -7.7415255,1521.3595 12.559917,968.80123 32.940834,414.07983 504.89084,-23.24145 1059.3321,-2.8667498 1615.9365,17.58744 2054.7414,491.14119 2034.2934,1047.4654 2013.766,1605.9528 1538.6084,2046.2413 980.40124,2025.7201 420.03093,2005.1193 -21.741222,1528.3581 -1.1467507,968.26791 19.527258,406.01463 497.89227,-37.241146 1059.8654,-16.573418 1624.0017,4.1738636 2068.7411,484.14263 2048.0001,1047.9987" />
    <path
       style="fill:none;stroke:#ffffff;stroke-width:3.77952756;stroke-linecap:butt;stroke-linejoin:miter;stroke-opacity:1;stroke-miterlimit:4;stroke-dasharray:none"
       d="M 2048,1024 H 1024 0"
       id="path1440"
       inkscape:connector-curvature="0" />
    <path
       style="fill:#ffffff;stroke:#ffffff;stroke-width:3.77952756;stroke-linecap:butt;stroke-linejoin:miter;stroke-opacity:1;stroke-miterlimit:4;stroke-dasharray:none"
       d="M 1024,0 V 2048"
       id="path1446"
       inkscape:connector-curvature="0" />
    <path
       style="fill:none;stroke:#ffffff;stroke-width:3.77952756;stroke-linecap:butt;stroke-linejoin:miter;stroke-opacity:1;stroke-miterlimit:4;stroke-dasharray:none"
       d="m 1024,1024 274.38,1024"
       id="path1448"
       inkscape:connector-curvature="0" />
    <path
       style="fill:none;stroke:#ffffff;stroke-width:3.77952756;stroke-linecap:butt;stroke-linejoin:miter;stroke-opacity:1;stroke-miterlimit:4;stroke-dasharray:none"
       d="M 1615.2067,2048 1024,1024 2048,2048 1024,1024 2048,1615.2067"
       id="path1450"
       inkscape:connector-curvature="0" />
    <path
       style="fill:none;stroke:#ffffff;stroke-width:3.77952756;stroke-linecap:butt;stroke-linejoin:miter;stroke-opacity:1;stroke-miterlimit:4;stroke-dasharray:none"
       d="m 1024,1024 1024,274.38"
       id="path1452"
       inkscape:connector-curvature="0" />
    <path
       style="fill:none;stroke:#ffffff;stroke-width:3.77952756;stroke-linecap:butt;stroke-linejoin:miter;stroke-opacity:1;stroke-miterlimit:4;stroke-dasharray:none"
       d="M 749.62003,2048 1024,1024 432.79332,2048"
       id="path1454"
       inkscape:connector-curvature="0" />
    <path
       style="fill:none;stroke:#ffffff;stroke-width:3.77952756;stroke-linecap:butt;stroke-linejoin:miter;stroke-opacity:1;stroke-miterlimit:4;stroke-dasharray:none"
       d="M 0,2048 1024,1024 0,1615.2067"
       id="path1456"
       inkscape:connector-curvature="0" />
    <path
       style="fill:none;stroke:#ffffff;stroke-width:3.77952756;stroke-linecap:butt;stroke-linejoin:miter;stroke-opacity:1;stroke-miterlimit:4;stroke-dasharray:none"
       d="M 0,1298.38 1024,1024 0,749.62003"
       id="path1458"
       inkscape:connector-curvature="0" />
    <path
       style="fill:none;stroke:#ffffff;stroke-width:3.77952756;stroke-linecap:butt;stroke-linejoin:miter;stroke-opacity:1;stroke-miterlimit:4;stroke-dasharray:none"
       d="M 0,432.79332 1024,1024 0,0"
       id="path1460"
       inkscape:connector-curvature="0" />
    <path
       style="fill:none;stroke:#ffffff;stroke-width:3.77952756;stroke-linecap:butt;stroke-linejoin:miter;stroke-opacity:1;stroke-miterlimit:4;stroke-dasharray:none"
       d="M 432.79332,0 1024,1024 749.62003,0"
       id="path1462"
       inkscape:connector-curvature="0" />
    <path
       style="fill:none;stroke:#ffffff;stroke-width:3.77952756;stroke-linecap:butt;stroke-linejoin:miter;stroke-opacity:1;stroke-miterlimit:4;stroke-dasharray:none"
       d="M 1298.38,0 1024,1024 C 1615.2067,0 1615.2067,0 1615.2067,0"
       id="path1464"
       inkscape:connector-curvature="0" />
    <path
       style="fill:none;stroke:#ffffff;stroke-width:3.77952756;stroke-linecap:butt;stroke-linejoin:miter;stroke-opacity:1;stroke-miterlimit:4;stroke-dasharray:none"
       d="M 2048,0 1024,1024 2048,432.79332"
       id="path1466"
       inkscape:connector-curvature="0" />
    <path
       style="fill:none;stroke:#ffffff;stroke-width:3.77952756;stroke-linecap:butt;stroke-linejoin:miter;stroke-opacity:1;stroke-miterlimit:4;stroke-dasharray:none"
       d="M 1024,1024 2048,749.62003"
       id="path1468"
       inkscape:connector-curvature="0"
       inkscape:export-xdpi="96"
       inkscape:export-ydpi="96" />
  </g>
</svg>
